<?xml version="1.0" encoding="utf-8"?>
<!-- Generator: Adobe Illustrator 23.0.0, SVG Export Plug-In . SVG Version: 6.00 Build 0)  -->
<svg version="1.1" id="Layer_1" xmlns="http://www.w3.org/2000/svg" xmlns:xlink="http://www.w3.org/1999/xlink" x="0px" y="0px"
	 viewBox="0 0 24 24" style="enable-background:new 0 0 24 24;" xml:space="preserve">
<style type="text/css">
	.st0{fill:#FFFFFF;fill-opacity:0;}
	.st1{fill:#FFFFFF;}
</style>
<g>
	<g>
		<rect y="0" class="st0" width="24" height="24"/>
		<path class="st1" d="M5,18h14c0.6,0,1,0.4,1,1l0,0c0,0.6-0.4,1-1,1H5c-0.6,0-1-0.4-1-1l0,0C4,18.4,4.4,18,5,18z"/>
		<path class="st1" d="M4,19v-2c0-0.6,0.4-1,1-1l0,0c0.6,0,1,0.4,1,1v2c0,0.6-0.4,1-1,1l0,0C4.4,20,4,19.6,4,19z"/>
		<path class="st1" d="M18,19v-2c0-0.6,0.4-1,1-1l0,0c0.6,0,1,0.4,1,1v2c0,0.6-0.4,1-1,1l0,0C18.4,20,18,19.6,18,19z"/>
		<path class="st1" d="M12,15c-0.2,0-0.4-0.1-0.6-0.2l-4-2.8c-0.4-0.3-0.6-0.9-0.2-1.4c0.3-0.5,0.9-0.6,1.4-0.2c0,0,0,0,0,0l3.4,2.4
			l3.4-2.6c0.4-0.3,1.1-0.2,1.4,0.2c0.3,0.4,0.2,1.1-0.2,1.4l-4,3C12.4,14.9,12.2,15,12,15z"/>
		<path class="st1" d="M12,13c-0.6,0-1-0.4-1-1V4c0-0.6,0.4-1,1-1s1,0.4,1,1v8C13,12.6,12.6,13,12,13z"/>
	</g>
</g>
</svg>
