<?xml version="1.0" encoding="utf-8"?>
<!-- Generator: Adobe Illustrator 23.0.0, SVG Export Plug-In . SVG Version: 6.00 Build 0)  -->
<svg version="1.1" id="Layer_1" xmlns="http://www.w3.org/2000/svg" xmlns:xlink="http://www.w3.org/1999/xlink" x="0px" y="0px"
	 viewBox="0 0 24 24" style="enable-background:new 0 0 24 24;" xml:space="preserve">
<style type="text/css">
	.st0{fill:#5670A1;fill-opacity:0;}
	.st1{fill:#5670A1;}
</style>
<g>
	<g>
		<rect y="0" class="st0" width="24" height="24"/>
		<path class="st1" d="M17.7,16.3L9.4,8H15c0.6,0,1-0.4,1-1s-0.4-1-1-1H7.1c-0.6,0-1,0.4-1,1v8c0,0.6,0.4,1,1,1H7c0.6,0,1-0.4,1-1
			V9.4l8.3,8.3c0.4,0.4,1,0.4,1.4,0c0,0,0,0,0,0C18.1,17.3,18.1,16.7,17.7,16.3C17.7,16.3,17.7,16.3,17.7,16.3z"/>
	</g>
</g>
</svg>
