<?xml version="1.0" encoding="utf-8"?>
<!-- Generator: Adobe Illustrator 23.0.0, SVG Export Plug-In . SVG Version: 6.00 Build 0)  -->
<svg version="1.1" id="Layer_1" xmlns="http://www.w3.org/2000/svg" xmlns:xlink="http://www.w3.org/1999/xlink" x="0px" y="0px"
	 viewBox="0 0 24 24" style="enable-background:new 0 0 24 24;" xml:space="preserve">
<style type="text/css">
	.st0{fill:#F4A6B4;fill-opacity:0;}
	.st1{fill:#F4A6B4;}
	.st2{fill:#E9476B;fill-opacity:0;}
	.st3{fill:#E9476B;}
</style>
<g>
	<g>
		<g>
			<rect class="st0" width="24" height="24"/>
			<circle class="st1" cx="12" cy="9.5" r="1.5"/>
			<path class="st1" d="M12,2C7.61,2,4.04,5.53,4,9.92c0,5.48,7.05,11.58,7.35,11.84c0.37,0.32,0.93,0.32,1.3,0
				C13,21.5,20,15.4,20,9.92C19.96,5.53,16.39,2,12,2z M12,13c-1.93,0-3.5-1.57-3.5-3.5S10.07,6,12,6s3.5,1.57,3.5,3.5
				S13.93,13,12,13z"/>
		</g>
	</g>
	<g>
		<g>
			<rect class="st2" width="24" height="24"/>
			<path class="st3" d="M12,2C7.61,2,4.04,5.53,4,9.92c0,5.48,7.05,11.58,7.35,11.84c0.37,0.32,0.93,0.32,1.3,0
				C13,21.5,20,15.4,20,9.92C19.96,5.53,16.39,2,12,2z M12,19.65c-1.67-1.59-6-6-6-9.73c0-3.31,2.69-6,6-6s6,2.69,6,6
				C18,13.62,13.67,18.06,12,19.65z"/>
			<path class="st3" d="M12,6c-1.93,0-3.5,1.57-3.5,3.5S10.07,13,12,13s3.5-1.57,3.5-3.5S13.93,6,12,6z M12,11
				c-0.83,0-1.5-0.67-1.5-1.5S11.17,8,12,8s1.5,0.67,1.5,1.5S12.83,11,12,11z"/>
		</g>
	</g>
</g>
</svg>
